<svg width="916" height="654" viewBox="0 0 916 654" fill="none" xmlns="http://www.w3.org/2000/svg">
<path d="M465.097 382.945L470.097 494.944C470.097 494.944 457.097 600.944 460.097 603.944C463.097 606.944 471.097 612.944 465.097 619.944C459.097 626.944 437.097 631.944 436.097 627.944C435.097 623.944 433.097 509.944 433.097 509.944L426.097 374.945L465.097 382.945Z" fill="#2F2E41"/>
<path opacity="0.2" d="M465.097 382.945L470.097 494.944C470.097 494.944 457.097 600.944 460.097 603.944C463.097 606.944 471.097 612.944 465.097 619.944C459.097 626.944 437.097 631.944 436.097 627.944C435.097 623.944 433.097 509.944 433.097 509.944L426.097 374.945L465.097 382.945Z" fill="black"/>
<path d="M460.097 617.944C460.097 617.944 485.097 636.944 488.097 636.944C491.097 636.944 518.097 645.944 499.097 649.944C480.097 653.944 434.097 651.944 433.097 645.944C432.097 639.944 436.097 621.736 436.097 621.736L460.097 617.944Z" fill="#2F2E41"/>
<path opacity="0.2" d="M460.097 617.944C460.097 617.944 485.097 636.944 488.097 636.944C491.097 636.944 518.097 645.944 499.097 649.944C480.097 653.944 434.097 651.944 433.097 645.944C432.097 639.944 436.097 621.736 436.097 621.736L460.097 617.944Z" fill="black"/>
<path d="M522.097 298.945C522.097 298.945 533.097 302.945 533.097 305.945C533.097 308.945 543.097 346.945 545.097 348.945C547.097 350.945 548.097 359.945 548.097 359.945C548.097 359.945 558.097 382.945 556.097 382.945C554.097 382.945 537.097 378.945 536.097 382.945C535.097 386.945 527.097 357.945 527.097 357.945L510.097 323.945L522.097 298.945Z" fill="#27AE60"/>
<path d="M556.097 386.945C556.097 386.945 553.097 408.944 545.097 410.944C537.097 412.944 545.097 382.945 545.097 382.945L556.097 386.945Z" fill="#FFCFCF"/>
<path d="M530.097 286.945C530.097 286.945 524.097 299.945 521.097 306.945C518.097 313.945 490.097 288.945 490.097 288.945C490.097 288.945 505.097 277.945 505.097 272.945C505.097 267.945 530.097 286.945 530.097 286.945Z" fill="#FFCFCF"/>
<path d="M580.097 652.944C598.095 652.944 615.689 647.607 630.653 637.608C645.618 627.609 657.282 613.397 664.17 596.769C671.057 580.141 672.859 561.844 669.348 544.191C665.837 526.539 657.17 510.324 644.443 497.598C631.717 484.871 615.502 476.204 597.85 472.693C580.198 469.182 561.9 470.984 545.272 477.871C528.644 484.759 514.432 496.423 504.433 511.388C494.434 526.352 489.097 543.946 489.097 561.944C489.124 586.071 498.72 609.201 515.78 626.261C532.84 643.321 555.97 652.917 580.097 652.944ZM580.097 472.944C597.699 472.944 614.906 478.164 629.542 487.944C644.178 497.723 655.586 511.623 662.322 527.886C669.058 544.148 670.821 562.043 667.386 579.307C663.952 596.572 655.476 612.43 643.029 624.877C630.582 637.324 614.724 645.8 597.46 649.234C580.195 652.668 562.3 650.906 546.038 644.17C529.775 637.434 515.875 626.026 506.096 611.39C496.316 596.754 491.097 579.547 491.097 561.944C491.123 538.348 500.508 515.726 517.193 499.041C533.878 482.356 556.5 472.971 580.097 472.944Z" fill="#2F2E41"/>
<path d="M300.097 652.944C318.095 652.944 335.689 647.607 350.653 637.608C365.618 627.609 377.282 613.397 384.17 596.769C391.057 580.141 392.859 561.844 389.348 544.191C385.837 526.539 377.17 510.324 364.443 497.598C351.717 484.871 335.502 476.204 317.85 472.693C300.197 469.182 281.9 470.984 265.272 477.871C248.644 484.759 234.432 496.423 224.433 511.388C214.434 526.352 209.097 543.946 209.097 561.944C209.124 586.071 218.72 609.201 235.78 626.261C252.84 643.321 275.97 652.917 300.097 652.944ZM300.097 472.944C317.699 472.944 334.906 478.164 349.542 487.944C364.178 497.723 375.586 511.623 382.322 527.886C389.058 544.148 390.821 562.043 387.386 579.307C383.952 596.572 375.476 612.43 363.029 624.877C350.582 637.324 334.724 645.8 317.46 649.234C300.195 652.668 282.3 650.906 266.038 644.17C249.775 637.434 235.875 626.026 226.096 611.39C216.316 596.754 211.097 579.547 211.097 561.944C211.123 538.348 220.508 515.726 237.193 499.041C253.878 482.356 276.5 472.971 300.097 472.944Z" fill="#2F2E41"/>
<path d="M580.097 567.945C576.783 567.945 574.097 565.258 574.097 561.945C574.097 558.631 576.783 555.945 580.097 555.945C583.41 555.945 586.097 558.631 586.097 561.945C586.097 565.258 583.41 567.945 580.097 567.945Z" fill="#2F2E41"/>
<path d="M298.097 567.945C294.783 567.945 292.097 565.258 292.097 561.945C292.097 558.631 294.783 555.945 298.097 555.945C301.41 555.945 304.097 558.631 304.097 561.945C304.097 565.258 301.41 567.945 298.097 567.945Z" fill="#2F2E41"/>
<path d="M571.177 553.337L573.017 552.552L520.752 429.931L372.542 432.955L372.255 433.405L299.255 547.405L300.939 548.484L373.652 434.934L519.442 431.958L571.177 553.337Z" fill="#2F2E41"/>
<path d="M415.472 576.128L377.059 440.672L375.135 441.217L412.722 573.761L312.223 560.952L311.971 562.937L415.472 576.128Z" fill="#2F2E41"/>
<path d="M524.383 460.244L525.81 461.645L422.81 566.645L421.383 565.244L524.383 460.244Z" fill="#2F2E41"/>
<path d="M367.066 408.68L373.057 430.683L371.127 431.208L365.136 409.206L367.066 408.68Z" fill="#2F2E41"/>
<path d="M517.121 424.166L519.073 423.723L514.35 402.945H531.097V389.945H529.097V400.945H511.844L517.121 424.166Z" fill="#2F2E41"/>
<path d="M403.097 388.944C403.097 388.944 403.097 382.945 390.097 385.945C377.097 388.945 337.097 396.944 334.097 395.944C331.097 394.944 332.097 401.944 345.097 404.944C358.097 407.944 373.097 400.944 376.097 398.944C379.097 396.944 403.097 388.944 403.097 388.944Z" fill="#2F2E41"/>
<path d="M439.097 567.945H465.097V577.945H439.097V567.945Z" fill="#27AE60"/>
<path d="M414.097 594.944C418.052 594.944 421.919 593.771 425.208 591.574C428.497 589.376 431.06 586.253 432.574 582.598C434.088 578.944 434.484 574.922 433.712 571.043C432.941 567.163 431.036 563.599 428.239 560.802C425.442 558.005 421.878 556.1 417.998 555.329C414.119 554.557 410.097 554.953 406.443 556.467C402.788 557.981 399.665 560.544 397.467 563.833C395.27 567.122 394.097 570.989 394.097 574.944C394.103 580.247 396.212 585.331 399.961 589.08C403.71 592.83 408.794 594.939 414.097 594.944ZM414.097 556.944C417.657 556.944 421.137 558 424.097 559.978C427.057 561.956 429.364 564.767 430.726 568.056C432.089 571.345 432.445 574.964 431.751 578.456C431.056 581.948 429.342 585.155 426.825 587.672C424.307 590.19 421.1 591.904 417.608 592.599C414.117 593.293 410.497 592.937 407.208 591.574C403.919 590.212 401.108 587.905 399.13 584.945C397.152 581.985 396.097 578.505 396.097 574.944C396.102 570.172 398 565.597 401.375 562.223C404.749 558.848 409.324 556.95 414.097 556.944Z" fill="#2F2E41"/>
<path d="M521.097 296.945C507.842 296.945 497.097 286.199 497.097 272.945C497.097 259.69 507.842 248.945 521.097 248.945C534.351 248.945 545.097 259.69 545.097 272.945C545.097 286.199 534.351 296.945 521.097 296.945Z" fill="#FFCFCF"/>
<path d="M445.097 384.945C445.097 384.945 514.097 424.944 513.097 437.944C512.097 450.944 460.097 521.944 460.097 521.944C460.097 521.944 456.097 542.944 452.097 542.944C448.097 542.944 423.097 551.944 422.097 545.944C421.097 539.944 430.097 532.944 429.097 528.944C428.097 524.944 473.097 451.944 473.097 451.944C473.097 451.944 376.789 415.945 396.943 384.945C417.097 353.945 445.097 384.945 445.097 384.945Z" fill="#2F2E41"/>
<path d="M443.097 538.944C443.097 538.944 455.097 541.944 457.097 545.944C459.097 549.944 494.097 562.944 484.097 565.944C474.097 568.944 416.097 569.944 414.097 567.944C412.097 565.944 414.097 542.732 422.097 542.838C430.097 542.944 439.097 545.944 443.097 538.944Z" fill="#2F2E41"/>
<path d="M521.097 309.945L498.597 282.445C498.597 282.445 473.097 274.945 462.097 289.945C451.097 304.945 421.097 341.945 411.097 349.945C401.097 357.945 387.097 388.944 392.097 389.944C397.097 390.944 425.097 378.945 436.097 386.945C447.097 394.945 468.097 395.944 469.097 391.944C470.097 387.944 530.097 320.945 530.097 311.945C530.097 302.945 523.703 301.013 523.703 301.013L521.097 309.945Z" fill="#27AE60"/>
<path d="M509.012 389.449L539.182 378.783C540.744 378.231 542.458 379.049 543.01 380.611C543.562 382.173 542.744 383.887 541.182 384.44L511.012 395.106C509.449 395.658 507.735 394.84 507.183 393.278C506.631 391.716 507.45 390.002 509.012 389.449Z" fill="#2F2E41"/>
<path d="M577.097 376.945C577.097 376.945 612.097 386.944 609.097 397.944C606.097 408.944 574.097 384.945 574.097 384.945L577.097 376.945Z" fill="#FFCFCF"/>
<path d="M486.097 289.945C486.097 289.945 500.097 301.945 503.097 315.945C506.097 329.945 521.097 354.945 521.097 354.945L582.097 374.945C582.097 374.945 586.097 393.944 580.097 393.944C574.097 393.944 507.097 379.945 505.097 376.945C503.097 373.945 460.097 316.945 460.097 316.945C460.097 316.945 456.097 285.945 486.097 289.945Z" fill="#27AE60"/>
<path d="M536.003 245.166C536.594 245.675 537.302 246.031 538.064 246.2C538.447 246.269 538.841 246.183 539.16 245.961C539.479 245.74 539.698 245.402 539.769 245.02C540.209 246.243 541.029 247.294 542.107 248.019C543.253 248.616 545.023 248.116 545.188 246.835C545.355 247.807 545.786 248.716 546.432 249.461C546.769 249.817 547.233 250.027 547.724 250.043C548.214 250.059 548.691 249.882 549.051 249.548C548.55 252.289 548.859 255.107 548.702 257.889C548.545 260.67 547.803 263.619 545.701 265.448C542.636 268.116 538.028 267.458 533.996 266.952C533.386 266.824 532.754 266.859 532.162 267.052C530.652 267.696 530.721 269.797 530.7 271.438C530.577 274.317 529.438 277.058 527.485 279.177C525.531 281.295 522.89 282.653 520.031 283.008C518.431 283.255 516.798 282.857 515.492 281.9C514.347 280.93 513.762 279.349 512.451 278.62C510.317 277.434 507.729 279.164 506.169 281.041C504.609 282.918 503.072 285.228 500.655 285.571C497.459 286.026 495.025 282.769 493.831 279.769C492.183 275.566 491.394 271.075 491.509 266.562C491.625 262.048 492.643 257.603 494.503 253.49C501.176 238.943 523.973 236.642 536.003 245.166Z" fill="#2F2E41"/>
</svg>
