<svg width="953" height="778" viewBox="0 0 953 778" fill="none" xmlns="http://www.w3.org/2000/svg">
<path d="M613.751 453.845C605.565 455.392 597.608 457.977 590.076 461.538L543.952 377.236L543.351 376.139L545.692 374.944C549.099 360.995 533.162 362.021 533.162 362.021L531.935 362.711C523.254 361.904 508.755 363.352 493.845 365.573L490.446 347.641C488.62 337.8 488.548 327.713 490.236 317.846C490.44 316.638 490.611 315.51 490.704 314.446C490.728 314.229 490.752 314.012 490.77 313.804L490.802 313.414C490.824 313.14 490.852 312.857 490.866 312.584C490.879 312.312 490.892 312.203 490.895 312.006C490.899 311.809 490.92 311.617 490.925 311.428L490.931 311.157C490.943 310.877 490.949 310.606 490.955 310.335C490.934 310.225 490.952 310.107 490.955 309.992C490.958 309.877 490.958 309.533 490.955 309.305C490.953 309.076 490.946 308.996 490.941 308.842C490.937 308.687 490.934 308.5 490.927 308.337C490.921 308.175 490.889 308.132 490.909 308.022C490.929 307.912 490.89 307.625 490.878 307.431L490.85 307.281C490.806 307.052 490.818 306.813 490.792 306.589C490.766 306.365 490.755 306.391 490.735 306.289C490.716 306.186 490.674 305.965 490.644 305.807C490.614 305.649 490.614 305.649 490.599 305.57C490.584 305.492 490.536 305.239 490.505 305.073C490.474 304.907 490.442 304.742 490.412 304.584C490.382 304.426 490.388 304.458 490.376 304.394C490.364 304.331 490.327 304.134 490.303 304.008C490.279 303.881 490.272 303.842 490.258 303.771C490.245 303.7 490.222 303.582 490.204 303.487C490.186 303.392 490.167 303.29 490.149 303.195C490.131 303.1 490.113 303.005 490.095 302.911C490.077 302.816 490.064 302.745 490.049 302.666C489.165 299.671 488.541 296.605 488.181 293.503L486.665 279.466C489.729 277.854 492.457 275.672 494.702 273.037C494.702 273.037 491.495 252.28 490.517 235.557C489.953 225.146 486.767 215.047 481.255 206.197C475.742 197.347 468.082 190.035 458.986 184.939C457.342 184.032 455.652 183.183 453.914 182.425C453.995 181.253 454.001 180.078 453.934 178.905C454.393 177.482 455.005 176.114 455.76 174.823C456.838 173.261 458.527 172.164 459.834 170.78C462.673 167.683 463.339 163.387 463.556 159.356C464.001 151.095 462.936 142.41 458.22 135.52C453.505 128.63 444.339 124.014 435.709 126.059C433.063 126.683 430.586 127.848 428.024 128.652C421.227 130.668 413.936 129.687 406.904 130.587C404.841 130.721 402.847 131.381 401.11 132.502C399.845 133.543 398.828 134.853 398.133 136.337C395.731 141.059 394.459 146.274 394.414 151.571C394.291 155.576 394.95 159.057 390.299 160.527C385.067 162.214 367.187 161.875 372.95 172.523C375.694 177.555 384.021 176.148 389.023 179.288C391.622 180.921 393.214 183.759 395.992 185.129L396.099 185.175C385.081 187.435 367.67 195.264 361.556 221.761C352.34 261.74 344.888 275.613 333.739 287.709C323.132 299.212 322.988 329.81 322.994 332.736C321.212 342.01 322.352 358.203 338.252 382.433C351.728 402.976 362.655 416.628 370.492 426.957L369.359 427.065C366.957 427.333 364.542 427.466 362.125 427.463C352.649 427.461 328.906 428.2 323.87 435.532C317.54 444.712 322.693 457.708 343.824 455.698C348.647 455.196 353.436 454.403 358.164 453.323L364.574 487.143L364.177 487.504C360.571 490.698 357.068 493.61 354.703 495.538L353.839 496.242C352.841 495.137 351.956 493.935 351.196 492.655L332.432 510.814L344.745 517.629L336.044 530.864C335.648 530.628 335.258 530.383 334.862 530.148C314.674 518.582 291.01 514.632 268.16 519.014C215.477 529 180.789 579.358 190.67 631.489C200.551 683.619 251.269 717.789 303.944 707.805C351.126 698.862 383.872 657.498 383.101 611.547C401.51 609.456 418.462 606.668 429.237 602.95L431.298 613.825L479.94 604.606L477.448 591.457L478.649 591.147C500.236 585.421 487.056 577.919 487.056 577.919C482.037 578.871 475.982 577.124 471.637 575.421C470.108 574.819 468.555 574.304 466.981 573.851C467.413 568.923 466.066 564.004 463.184 559.984L552.438 424.512L578.278 468.181L577.237 468.861C546.218 489.784 528.91 527.576 536.259 566.353C546.142 618.491 596.858 652.654 649.533 642.669C702.209 632.685 736.906 582.292 727.033 530.201C717.159 478.11 666.411 443.864 613.751 453.845ZM650.139 618.042L634.645 557.867C635.356 557.627 636.039 557.311 636.683 556.925L679.136 602.751C670.747 609.969 660.834 615.197 650.139 618.042ZM581 600.994L624.133 555.723L624.252 555.831L614.982 618.819C602.275 615.994 590.547 609.842 581 600.994ZM653.141 478.634L636.013 537.994C634.506 537.046 632.785 536.495 631.008 536.391L629.958 534.473L620.863 476.184C631.67 474.589 642.696 475.423 653.14 478.626L653.141 478.634ZM627.658 530.232L601.214 481.911C606.503 479.544 612.051 477.803 617.745 476.726L619.26 476.438L627.658 530.232ZM589.077 488.79C589.416 488.554 589.806 488.325 590.106 488.096L621.497 541.211C620.84 542.194 620.355 543.281 620.062 544.426L561.742 525.147C563.069 521.298 564.716 517.567 566.668 513.993L571.343 506.476C576.198 499.61 582.197 493.627 589.077 488.79ZM561.306 526.685L619.871 546.049C619.797 546.963 619.845 547.883 620.014 548.785C620.039 548.919 620.065 549.054 620.09 549.188L558.908 559.672C557.114 548.647 557.925 537.355 561.276 526.699L561.306 526.685ZM641.398 544.92L695.999 513.697C700.979 522.99 703.858 533.263 704.433 543.79C705.009 554.318 703.267 564.843 699.331 574.624L641.118 551.686C641.834 549.885 642.028 547.918 641.678 546.012C641.594 545.647 641.49 545.287 641.368 544.934L641.398 544.92ZM695.236 512.256L640.789 543.392C639.884 541.807 638.782 540.343 637.51 539.034L654.769 479.111C671.882 484.787 686.287 496.6 695.206 512.27L695.236 512.256ZM529.003 384.901L535.245 395.443L468.716 430.603L465.216 416.148L503.224 396.68C503.479 397.567 503.596 398.488 503.57 399.411C504.385 398.152 505.082 396.821 505.654 395.435L528.326 383.828L529.003 384.901ZM304.545 683.196L289.079 623.171C289.876 623.007 290.65 622.753 291.389 622.414L333.543 667.953C325.148 675.154 315.236 680.364 304.545 683.196ZM235.408 666.163L278.549 620.931L278.668 621.04L269.39 683.988C256.683 681.163 244.956 675.011 235.408 666.163ZM213.293 624.846C211.504 613.818 212.32 602.525 215.677 591.869L275.236 611.56C275.101 612.438 275.08 613.329 275.175 614.212L213.293 624.846ZM307.55 543.803L291.952 597.951L288.88 602.621C287.602 602.389 286.292 602.393 285.015 602.634L284.865 602.662L275.266 541.362C286.075 539.764 297.104 540.598 307.55 543.803ZM335.278 559.56C340.978 564.717 345.816 570.753 349.606 577.44L300.559 605.485L335.278 559.56ZM298.049 608.806L350.425 578.871C351.282 580.513 352.101 582.192 352.884 583.908C353.057 584.3 353.216 584.662 353.385 585.08C329.191 595.087 306.798 605.316 297.44 609.649L298.049 608.806ZM283.244 602.994C281.692 603.354 280.241 604.06 278.999 605.058L246.902 551.709C254.641 546.907 263.203 543.58 272.153 541.895C272.659 541.799 273.164 541.703 273.669 541.607L283.244 602.994ZM277.752 606.243C276.779 607.321 276.039 608.588 275.58 609.966L216.191 590.309C217.512 586.452 219.155 582.713 221.104 579.133L225.79 571.589C231.112 564.073 237.8 557.624 245.505 552.579L277.752 606.243ZM358.932 613.872C358.817 622.759 357.05 631.547 353.722 639.788L296.588 617.275C307.312 616.959 332.514 616.025 358.932 613.872ZM375.165 574.983C369.375 561.724 360.641 549.958 349.626 540.578L351.699 537.839L377.477 554.955L381.109 574.118C379.307 574.792 377.494 575.479 375.67 576.179C375.504 575.777 375.347 575.382 375.175 574.989L375.165 574.983ZM373.415 533.527L372.855 533.159L373.402 533.455L373.415 533.527ZM385.019 502.522L385.067 502.473L386.109 501.457L386.571 501.002L387.081 500.505L387.662 499.945L388.203 499.433L388.861 498.81L389.41 498.297L390.218 497.555L390.712 497.102L391.579 496.324C392.645 499.832 394.203 503.17 396.206 506.24L401.873 534.461C396.322 530.185 391.649 524.877 388.11 518.829L385.019 502.522ZM451.989 361.463C454.23 362.805 455.67 363.627 455.67 363.627C455.67 363.627 460.429 366.519 465.951 370.378C461.839 371.157 458.019 371.881 454.681 372.604L451.989 361.463ZM458.735 389.333C465.369 388.312 473.984 386.917 483.119 385.25C483.22 385.436 483.321 385.621 483.394 385.795C485.367 386.018 487.322 386.374 489.246 386.861L461.878 402.334L458.735 389.333ZM456.341 336.069C456.341 336.069 447.327 321.425 437.717 310.884C439.441 298.8 444.388 285.427 456.868 277.551L456.978 278.65L457.042 279.243C457.559 284.304 458.22 290.466 458.984 296.78L459.053 297.143C459.146 297.894 459.237 298.648 459.326 299.406L459.399 299.792L459.518 300.718L459.633 301.629L459.735 302.427C459.803 302.959 459.872 303.491 459.94 304.023L460.025 304.473C460.111 304.926 460.173 305.383 460.211 305.844L460.312 306.373C460.385 306.904 460.461 307.451 460.541 308.014L460.559 308.108C460.642 308.72 460.729 309.324 460.821 309.923L460.872 310.191C460.971 310.717 461.054 311.269 461.12 311.845L461.144 311.971C461.325 313.185 461.511 314.368 461.702 315.52L461.726 315.646C461.943 316.791 462.105 317.905 462.291 318.973L462.309 319.068C462.512 320.141 462.707 321.167 462.891 322.138C462.98 322.606 463.066 323.064 463.151 323.511L463.168 323.598C463.335 324.482 463.548 325.301 463.74 326.057L463.767 326.199C463.955 326.932 464.148 327.607 464.334 328.201L464.361 328.343C464.442 328.595 464.522 328.833 464.603 329.058L464.627 329.184C464.722 329.428 464.808 329.665 464.904 329.867L464.92 329.954C464.994 330.128 465.073 330.285 465.149 330.426L465.214 330.553C465.293 330.697 465.382 330.836 465.48 330.968C467.336 333.38 469.539 341.466 471.478 350.1C462.822 342.436 456.331 336.055 456.331 336.055L456.341 336.069ZM397.241 567.005L392.928 544.251L405.203 551.032L408.002 564.982C404.671 565.957 401.151 567.098 397.479 568.301L397.241 567.005ZM374.843 448.837C377.524 447.969 380.14 447.016 382.671 446.094C383.431 447.973 383.957 449.938 384.238 451.946L386.52 463.982L387.064 463.879C384.315 466.451 381.702 469.165 379.236 472.01L374.845 448.845L374.843 448.837ZM323.054 550.627L294.993 593.286L309.106 544.293C313.525 545.761 317.795 547.645 321.857 549.922C322.267 550.146 322.665 550.431 323.054 550.627ZM213.641 626.808C213.618 626.689 213.596 626.571 213.573 626.453L275.484 615.846C275.854 617.255 276.518 618.57 277.434 619.704L234.246 665.034C223.591 654.728 216.392 641.374 213.641 626.808ZM299.179 684.434C289.869 686.209 280.304 686.173 271.008 684.328L280.167 622.088C282.353 623.406 284.942 623.888 287.456 623.446L302.946 683.605C301.705 683.914 300.449 684.193 299.179 684.434ZM334.777 666.828L292.848 621.573C293.985 620.812 294.964 619.838 295.731 618.705L353.078 641.308C348.892 651.037 342.648 659.743 334.777 666.828ZM447.932 551.297C445.965 551.124 443.984 551.224 442.045 551.596L441.398 551.718L440.75 551.841C437.468 552.454 434.376 553.832 431.726 555.865C428.746 547.649 426.005 536.984 427.5 528.091C428.377 522.724 428.769 517.289 428.674 511.851L428.2 473.333L542.94 408.48L545.227 412.348L447.932 551.297ZM559.232 561.639C559.21 561.52 559.187 561.402 559.165 561.284L620.561 550.766C621.278 552.082 622.091 553.344 622.993 554.541L579.806 599.871C569.161 589.559 561.974 576.203 559.232 561.639ZM644.77 619.264C635.46 621.04 625.896 621.004 616.6 619.159L625.758 556.919C627.944 558.237 630.533 558.719 633.047 558.277L648.539 618.444C647.295 618.75 646.038 619.024 644.77 619.264ZM680.377 601.666L638.039 555.973C638.984 555.183 639.784 554.235 640.402 553.171L698.718 576.138C694.521 585.872 688.263 594.581 680.377 601.666Z" fill="url(#paint0_linear)"/>
<path d="M645.138 622.498L625.551 546.166L625.417 546.02L620.758 548.701L610.486 619.99L569.076 601.022L619.247 547.843L619.27 547.667L619.579 547.486L622.812 544.052L555.371 521.424L543.542 540.673L548.827 555.615L619.149 543.577L619.449 545.156L547.794 557.413L541.803 540.471L557.981 514.144L581.784 472.7L582.608 474.073L587.733 465.743L612.656 465.491L612.475 464.536L614.062 464.285L614.288 465.476L651.304 465.099L630.558 538.243L626.357 542.694L626.432 543.088L626.515 543.53L698.614 502L703.096 575.725L629.678 546.414L627.128 545.556L677.556 600.5L645.138 622.498ZM627.868 548.638L646.155 619.885L675.165 600.176L627.868 548.638ZM571.823 600.501L609.238 617.635L618.888 550.609L571.823 600.501ZM628.468 544.256L630.292 544.867L701.369 573.256L697.197 504.656L628.468 544.256ZM621.787 539.635L624.374 542.456L624.673 542.138L612.9 467.08L588.628 467.315L583.534 475.639L621.787 539.635ZM556.443 520.093L621.794 542.046L620.45 540.559L582.619 477.194L559.374 515.024L556.443 520.093ZM614.556 467.061L626.054 540.666L629.131 537.401L649.179 466.704L614.556 467.061Z" fill="#535461"/>
<path d="M308.703 685.94L289.103 609.577L288.969 609.431L284.31 612.113L274.052 683.432L232.643 664.471L282.798 611.296L282.822 611.12L283.131 610.938L286.364 607.505L218.922 584.877L207.101 604.124L212.386 619.066L282.73 607.057L283.029 608.636L211.375 620.893L205.363 603.93L221.548 577.593L245.37 536.122L246.194 537.494L251.32 529.164L276.177 528.917L275.996 527.962L277.584 527.71L277.81 528.902L314.825 528.525L294.105 601.631L289.904 606.082L289.979 606.476L290.062 606.918L362.154 565.389L366.635 639.115L293.217 609.803L290.668 608.946L341.094 663.881L308.703 685.94ZM291.433 612.079L309.721 683.327L338.73 663.618L291.433 612.079ZM235.379 663.936L272.795 681.07L282.444 614.045L235.379 663.936ZM292.024 607.691L293.849 608.302L364.925 636.692L360.753 568.092L292.024 607.691ZM285.343 603.07L287.93 605.892L288.23 605.573L276.456 530.516L252.187 530.766L247.093 539.09L285.343 603.07ZM219.974 583.525L285.325 605.478L283.981 603.991L246.15 540.626L222.911 578.447L219.974 583.525ZM278.11 530.488L289.613 604.117L292.69 600.852L312.739 530.155L278.11 530.488Z" fill="#535461"/>
<path d="M388.366 537.825L348.355 510.951L339.845 523.621L379.856 550.495L388.366 537.825Z" fill="#27AE60"/>
<path opacity="0.1" d="M388.366 537.825L348.355 510.951L339.845 523.621L379.856 550.495L388.366 537.825Z" fill="black"/>
<path d="M353.378 493.508C353.378 493.508 370.987 479.476 377.288 471.398C381.085 466.553 385.302 462.052 389.889 457.947L411.603 438.354L462.157 424.684L466.17 432.917C466.17 432.917 472.51 444.797 435.142 463.326C397.773 481.856 381.333 502.96 381.333 502.96C381.333 502.96 357.716 516.397 353.378 493.508Z" fill="#FFCFCF"/>
<path opacity="0.1" d="M383.1 500.85C381.905 502.181 381.327 502.928 381.327 502.928C381.327 502.928 357.716 516.397 353.378 493.508C353.378 493.508 354.478 492.629 356.207 491.182C358.764 493.993 361.998 496.101 365.602 497.306C369.206 498.511 373.058 498.772 376.791 498.064L379.467 497.557L383.1 500.85Z" fill="black"/>
<path opacity="0.05" d="M466.254 437.414C464.941 442.479 458.82 451.553 435.136 463.295C404.785 478.344 388.236 495.078 383.1 500.85C381.905 502.181 381.327 502.928 381.327 502.928C381.327 502.928 357.716 516.397 353.378 493.508C353.378 493.508 354.478 492.629 356.207 491.182C361.462 486.858 372.542 477.457 377.259 471.371C381.054 466.524 385.271 462.023 389.859 457.92L411.574 438.327L420.58 435.892L462.127 424.656L466.141 432.89C466.141 432.89 467.015 434.482 466.254 437.414Z" fill="black"/>
<path d="M352.8 488.303L334.503 506.08L405.473 545.773C405.473 545.773 413.423 538.543 407.491 533.126C407.491 533.126 389.163 522.701 384.783 503.908L378.851 498.492L376.175 498.999C371.651 499.857 366.972 499.289 362.785 497.373C358.597 495.457 355.108 492.288 352.8 488.303Z" fill="#ABB1D1"/>
<path opacity="0.1" d="M466.254 437.414C452.47 433.707 421.517 438.895 421.517 438.895L420.604 435.887L462.151 424.652L466.164 432.885C466.164 432.885 467.015 434.482 466.254 437.414Z" fill="black"/>
<path d="M421.218 437.316C421.218 437.316 458.463 431.074 469.43 437.172L446.593 342.569L395.291 352.293L421.218 437.316Z" fill="#ABB1D1"/>
<path opacity="0.05" d="M421.143 436.922C421.143 436.922 458.388 430.68 469.355 436.777L446.518 342.174L395.216 351.898L421.143 436.922Z" fill="black"/>
<path d="M608.391 450.585C600.013 452.163 591.887 454.87 584.235 458.63C580.288 460.568 576.484 462.784 572.851 465.261C553.488 478.405 539.687 498.263 534.119 520.995C528.551 543.727 531.611 567.715 542.708 588.321C553.805 608.926 572.15 624.684 594.193 632.545C616.237 640.407 640.413 639.814 662.044 630.88C683.676 621.947 701.225 605.309 711.298 584.184C721.371 563.059 723.251 538.949 716.575 516.518C709.899 494.087 695.141 474.929 675.156 462.75C655.171 450.571 631.379 446.237 608.383 450.587L608.391 450.585ZM638.906 613.304C622.898 616.331 606.336 613.792 591.97 606.107C577.605 598.422 566.3 586.054 559.934 571.058C553.568 556.061 552.523 539.338 556.973 523.666C561.424 507.993 571.101 494.315 584.399 484.902C587.781 482.505 591.367 480.411 595.117 478.643C604.281 474.315 614.263 471.987 624.396 471.816C634.53 471.645 644.584 473.634 653.89 477.651C663.195 481.668 671.538 487.621 678.364 495.114C685.189 502.606 690.341 511.466 693.476 521.104C696.611 530.743 697.657 540.938 696.545 551.012C695.432 561.086 692.187 570.808 687.026 579.531C681.864 588.253 674.904 595.776 666.608 601.599C658.312 607.422 648.872 611.412 638.914 613.302L638.906 613.304Z" fill="#535461"/>
<path d="M439.944 373.231C439.944 373.231 532.202 352.473 536.372 364.119C540.541 375.765 444.832 388.665 444.832 388.665C444.832 388.665 435.817 382.516 439.944 373.231Z" fill="#535461"/>
<path opacity="0.05" d="M439.944 373.231C439.944 373.231 532.202 352.473 536.372 364.119C540.541 375.765 444.832 388.665 444.832 388.665C444.832 388.665 435.817 382.516 439.944 373.231Z" fill="black"/>
<path d="M373.875 435.489L357.451 438.602L384.51 581.363L400.934 578.25L373.875 435.489Z" fill="#27AE60"/>
<path opacity="0.1" d="M373.874 435.481L375.957 446.476C370.63 448.221 365.128 449.73 359.786 450.922L357.449 438.594L373.874 435.481Z" fill="black"/>
<path d="M370.4 423.884C368.062 424.142 365.711 424.268 363.358 424.262C354.132 424.244 331.008 424.923 326.121 432.137C319.98 441.15 325.02 453.939 345.592 452.002C366.164 450.065 399.95 438.429 405.466 429.526C405.46 429.494 390.939 421.601 370.4 423.884Z" fill="#535461"/>
<path d="M376.878 475.49L539.154 389.109L547.352 401.3L381.972 495.463L376.878 475.49Z" fill="#27AE60"/>
<path d="M444.09 550.44L545.305 404.304L554.165 413.09L458.873 559.411L444.09 550.44Z" fill="#27AE60"/>
<path opacity="0.1" d="M595.109 478.645C591.359 480.412 587.773 482.506 584.391 484.904L572.85 465.253C576.483 462.776 580.287 460.56 584.233 458.623L595.109 478.645Z" fill="black"/>
<path d="M627.952 536.529L620.07 543.256L525.735 382.626L521.511 375.439L534.484 364.469L540.274 375.128L627.952 536.529Z" fill="#27AE60"/>
<path opacity="0.1" d="M540.274 375.128L525.735 382.626L521.511 375.439L534.484 364.469L540.274 375.128Z" fill="black"/>
<path d="M448.816 406.232L529.73 360.137C529.73 360.137 545.251 359.157 541.955 372.872L459.698 415.289C459.698 415.289 446.678 419.065 448.816 406.232Z" fill="#535461"/>
<path d="M376.272 569.263C370.441 555.798 361.544 543.883 350.291 534.467C346.113 530.967 341.643 527.832 336.929 525.095C318.812 514.604 297.725 510.426 276.976 513.215C256.227 516.005 236.992 525.605 222.289 540.508C207.586 555.412 198.248 574.775 195.74 595.56C193.232 616.345 197.696 637.374 208.432 655.347C219.168 673.32 235.567 687.22 255.057 694.865C274.546 702.51 296.023 703.468 316.115 697.587C336.208 691.707 353.779 679.321 366.072 662.375C378.364 645.428 384.682 624.88 384.033 603.955C383.872 599.03 383.33 594.124 382.414 589.283C381.115 582.402 379.055 575.688 376.272 569.263ZM302.464 676.747C288.071 679.459 273.192 677.673 259.85 671.631C246.509 665.589 235.351 655.585 227.896 642.978C220.44 630.372 217.048 615.775 218.18 601.173C219.313 586.571 224.915 572.672 234.225 561.365C243.536 550.059 256.102 541.895 270.216 537.983C284.33 534.07 299.306 534.6 313.109 539.499C326.911 544.398 338.87 553.429 347.359 565.365C355.847 577.3 360.454 591.56 360.553 606.206C360.651 622.902 354.893 639.104 344.279 651.992C333.666 664.881 318.869 673.641 302.464 676.747Z" fill="#535461"/>
<path opacity="0.1" d="M382.414 589.283C383.33 594.124 383.872 599.03 384.033 603.955C376.353 604.846 368.374 605.541 360.553 606.206C360.478 596.498 358.441 586.905 354.562 578.005C361.737 575.01 369.083 572.056 376.275 569.278C379.056 575.699 381.115 582.408 382.414 589.283Z" fill="black"/>
<path opacity="0.1" d="M397.751 561.455L400.933 578.242L384.508 581.356L381.816 567.149C387.311 565.085 392.67 563.162 397.751 561.455Z" fill="black"/>
<path d="M296.132 605.334C296.132 605.334 422.208 545.463 435.454 556.68C448.699 567.897 463.427 583.436 431.175 596.09C398.923 608.744 294.586 610.852 294.586 610.852L296.132 605.334Z" fill="#27AE60"/>
<path opacity="0.1" d="M350.291 534.467L336.357 553.093C332.645 549.826 328.605 546.953 324.3 544.52L336.922 525.097C341.638 527.833 346.111 530.968 350.291 534.467Z" fill="black"/>
<path d="M290.391 599.203L369.925 476.808L377.639 500.209L297.237 607.717L290.391 599.203Z" fill="#27AE60"/>
<path opacity="0.1" d="M292.361 616.498C297.945 615.44 301.613 610.055 300.555 604.472C299.496 598.888 294.112 595.219 288.528 596.278C282.944 597.336 279.276 602.72 280.334 608.304C281.392 613.888 286.777 617.557 292.361 616.498Z" fill="black"/>
<path d="M291.09 616.739C296.674 615.681 300.342 610.296 299.284 604.712C298.226 599.129 292.841 595.46 287.257 596.518C281.673 597.577 278.005 602.961 279.063 608.545C280.122 614.129 285.506 617.798 291.09 616.739Z" fill="#535461"/>
<path opacity="0.1" d="M626.662 552.153C632.245 551.095 635.914 545.71 634.856 540.126C633.797 534.542 628.413 530.874 622.829 531.932C617.245 532.991 613.576 538.375 614.635 543.959C615.693 549.543 621.078 553.211 626.662 552.153Z" fill="black"/>
<path d="M627.532 553.296C633.116 552.238 636.785 546.853 635.726 541.269C634.668 535.685 629.283 532.017 623.7 533.075C618.116 534.134 614.447 539.518 615.506 545.102C616.564 550.686 621.949 554.354 627.532 553.296Z" fill="#535461"/>
<path opacity="0.1" d="M447.75 587.045C458.913 584.929 466.248 574.165 464.132 563.001C462.016 551.838 451.251 544.504 440.088 546.62C428.924 548.735 421.59 559.5 423.706 570.664C425.822 581.827 436.587 589.161 447.75 587.045Z" fill="black"/>
<path d="M449.021 586.805C460.184 584.689 467.519 573.924 465.403 562.76C463.287 551.597 452.522 544.263 441.358 546.379C430.195 548.495 422.861 559.26 424.977 570.423C427.093 581.586 437.858 588.92 449.021 586.805Z" fill="#535461"/>
<path d="M439.505 566.096L439.5 566.102C437.462 568.327 437.615 571.782 439.84 573.82L459.948 592.231C462.173 594.269 465.629 594.116 467.666 591.891L467.671 591.885C469.709 589.66 469.557 586.205 467.331 584.168L447.223 565.756C444.998 563.719 441.542 563.871 439.505 566.096Z" fill="#27AE60"/>
<path d="M483.26 268.575L485.886 292.695C486.24 295.746 486.853 298.762 487.717 301.71C488.466 304.323 489.104 309.026 487.846 316.623C486.222 326.331 486.311 336.249 488.11 345.926L493.237 372.974L474.485 373.257C474.485 373.257 468.094 335.223 463.74 329.507C459.386 323.792 454.289 266.707 454.289 266.707L483.26 268.575Z" fill="#FFCFCF"/>
<path opacity="0.05" d="M484.561 280.527L485.886 292.695C486.243 295.744 486.857 298.756 487.724 301.7C488.472 304.314 489.11 309.017 487.854 316.622C486.229 326.33 486.319 336.247 488.118 345.924L493.244 372.972L474.493 373.256C474.493 373.256 468.102 335.222 463.748 329.506C460.666 325.454 457.206 295.638 455.452 278.579C454.735 271.561 454.297 266.706 454.297 266.706L483.268 268.573L484.561 280.527Z" fill="black"/>
<path d="M427.708 467.155L428.241 507.281C428.363 512.629 428.008 517.977 427.182 523.262C425.254 534.959 430.718 549.81 434.245 557.808C435.805 561.339 436.966 563.539 436.966 563.539L418.54 578.478L411.328 574.939L410.73 571.782L396.626 501.688C389.797 491.536 388.233 474.662 390.194 467.75C390.698 465.505 390.916 463.205 390.842 460.906C390.817 452.146 389.054 440.167 389.054 440.167C389.054 440.167 397.643 416.463 415.331 427.827C421.848 432.013 425.244 438.458 426.928 444.925C429.827 455.994 427.708 467.155 427.708 467.155Z" fill="#FFCFCF"/>
<path opacity="0.1" d="M426.924 444.902C417.209 453.48 398.513 458.929 390.838 460.882C390.813 452.122 389.049 440.143 389.049 440.143C389.049 440.143 397.638 416.44 415.327 427.804C421.844 431.989 425.24 438.434 426.924 444.902Z" fill="black"/>
<path d="M449.905 420.432C442.359 426.493 435.43 433.283 429.219 440.705C418.536 453.359 387.115 460.133 387.115 460.133L384.871 448.294C382.967 433.937 366.558 420.695 340.027 379.938C323.083 353.911 323.268 337.328 325.608 328.708C326.941 323.836 328.957 321.532 328.957 321.532L431.205 321.775L436.738 331.682L448.538 352.829C448.538 352.829 421.213 359.644 416.926 362.909C412.639 366.175 419.835 386.886 419.835 386.886C419.289 409.883 449.905 420.432 449.905 420.432Z" fill="#ABB1D1"/>
<path opacity="0.1" d="M483.26 268.575L484.561 280.527C471.575 287.076 459.391 276.369 459.391 276.369C458.032 277.025 456.713 277.763 455.444 278.581C454.727 271.563 454.289 266.707 454.289 266.707L483.26 268.575Z" fill="black"/>
<path opacity="0.1" d="M436.737 331.682C437.065 335.438 437.504 337.751 437.504 337.751C437.504 337.751 422.193 356.188 387.073 339.133C351.954 322.079 325.527 333.629 325.527 333.629C325.527 333.629 325.503 331.737 325.608 328.708C326.941 323.836 328.957 321.532 328.957 321.532L431.205 321.775L436.737 331.682Z" fill="black"/>
<path d="M488.057 235.737C489.042 252.189 492.192 272.564 492.192 272.564C476.732 290.211 459.085 274.751 459.085 274.751C442.814 282.602 437.6 299.133 436.285 312.946C435.594 320.414 435.85 327.94 437.047 335.344C437.047 335.344 432.997 340.199 424.306 342.664C416.081 344.951 403.687 345.043 386.617 336.726C351.498 319.672 325.07 331.222 325.07 331.222C325.07 331.222 324.611 298.604 335.444 286.74C346.277 274.875 353.504 261.241 362.408 221.943C371.312 182.645 405.317 185.193 405.317 185.193C405.317 185.193 405.549 177.791 436.098 179.359C443.564 179.875 450.809 182.115 457.264 185.903C475.372 196.075 486.81 215.01 488.057 235.737Z" fill="#8E44AD"/>
<path d="M450.024 195.157C450.183 196.214 450.318 197.399 450.423 198.728C451.537 213.234 449.659 211.954 432.894 218.402C422.469 222.414 415.148 214.457 411.102 207.865C409.638 205.477 408.397 202.959 407.395 200.342L444.083 186.848C444.083 186.848 448.38 184.717 450.024 195.157Z" fill="#FFCFCF"/>
<path opacity="0.05" d="M436.293 312.986C435.602 320.454 435.858 327.979 437.055 335.383C437.055 335.383 433.004 340.239 424.314 342.704C423.97 342.248 423.679 341.755 423.446 341.233C420.522 334.429 406.289 324.045 406.289 324.045C397.05 318.437 393.078 306.108 393.078 306.108L372.8 270.298L367.786 267.569C367.786 267.569 383.246 249.921 401.275 258.768C419.304 267.615 419.356 293.769 419.356 293.769L424.158 301.852C427.957 303.994 432.211 308.232 436.293 312.986Z" fill="black"/>
<path d="M370.004 266.331L395.296 304.87C395.296 304.87 399.268 317.199 408.507 322.806C408.507 322.806 422.74 333.191 425.665 339.995C428.589 346.799 454.279 361.552 454.279 361.552C454.279 361.552 478.39 376.605 481.315 383.409C481.315 383.409 501.305 385.344 501.031 396.842C501.031 396.842 512.545 379.943 495.795 369.218C479.045 358.493 454.867 334.46 454.867 334.46C454.867 334.46 438.282 307.351 426.376 300.614L421.574 292.531C421.574 292.531 421.522 266.377 403.493 257.53C385.464 248.683 370.004 266.331 370.004 266.331Z" fill="#FFCFCF"/>
<path opacity="0.1" d="M436.962 563.515L418.535 578.454L411.324 574.916L410.725 571.759C417.721 569.911 424.216 566.526 429.738 561.851C431.428 560.419 433.012 559.023 434.264 557.821C435.785 561.318 436.962 563.515 436.962 563.515Z" fill="black"/>
<path opacity="0.1" d="M397.659 226.749L416.936 268.064C416.936 268.064 384.045 280.021 375.895 275.843C367.744 271.665 354.028 272.629 354.028 272.629C354.028 272.629 360.455 228.895 367.45 222.663C374.445 216.432 397.659 226.749 397.659 226.749Z" fill="black"/>
<path d="M397.36 225.17L416.637 266.485C416.637 266.485 383.746 278.443 375.596 274.264C367.445 270.086 353.728 271.051 353.728 271.051C353.728 271.051 360.156 227.316 367.151 221.085C374.146 214.853 397.36 225.17 397.36 225.17Z" fill="#8E44AD"/>
<path opacity="0.1" d="M449.874 194.367C448.242 197.838 445.917 200.938 443.042 203.476C440.168 206.015 436.804 207.938 433.158 209.129C429.513 210.319 425.662 210.751 421.843 210.398C418.024 210.045 414.318 208.914 410.953 207.076C409.488 204.688 408.247 202.169 407.246 199.553L443.933 186.058C443.933 186.058 448.231 183.927 449.874 194.367Z" fill="black"/>
<path d="M451.891 176.407C453.279 183.733 451.701 191.311 447.502 197.473C443.304 203.636 436.829 207.878 429.503 209.267C422.176 210.655 414.598 209.077 408.436 204.878C402.273 200.679 398.031 194.205 396.642 186.878C396.556 186.421 396.469 185.963 396.382 185.505C395.176 178.144 396.943 170.606 401.294 164.547C405.646 158.489 412.226 154.408 419.587 153.202C426.948 151.995 434.487 153.762 440.545 158.114C446.603 162.466 450.684 169.046 451.891 176.407Z" fill="#FFCFCF"/>
<path opacity="0.1" d="M451.891 176.407C452.376 178.952 452.505 181.552 452.276 184.134C450.229 185.004 447.964 185.222 445.788 184.758C442.616 184.158 439.704 182.641 436.599 181.742C427.853 179.213 418.51 181.81 409.923 184.819C405.66 186.314 400.797 187.874 396.818 185.733C396.681 185.662 396.549 185.584 396.422 185.498C395.215 178.137 396.982 170.598 401.334 164.54C405.686 158.482 412.266 154.401 419.627 153.194C426.987 151.988 434.526 153.755 440.584 158.106C446.642 162.458 450.724 169.038 451.93 176.399L451.891 176.407Z" fill="black"/>
<path d="M373.42 173.579C376.1 178.532 384.206 177.168 389.085 180.266C391.623 181.878 393.191 184.671 395.9 186.022C399.667 187.908 404.313 186.455 408.39 185.061C416.6 182.262 425.525 179.826 433.823 182.022C436.766 182.797 439.53 184.137 442.547 184.653C445.563 185.169 449.084 184.632 451.02 182.336C452.568 180.497 452.773 177.915 454.12 175.96C455.161 174.421 456.815 173.356 458.067 171.941C460.827 168.9 461.465 164.674 461.662 160.712C462.079 152.555 461.03 144.046 456.4 137.263C451.77 130.479 442.863 125.929 434.459 127.923C431.885 128.533 429.479 129.684 426.944 130.459C420.326 132.425 413.227 131.424 406.382 132.321C404.373 132.454 402.431 133.104 400.746 134.207C399.513 135.234 398.526 136.525 397.857 137.984C395.526 142.633 394.298 147.756 394.268 152.956C394.195 156.886 394.805 160.319 390.283 161.781C385.15 163.474 367.746 163.101 373.42 173.579Z" fill="#3E3E3E"/>
<path opacity="0.05" d="M338.929 285.711C338.929 285.711 360.496 287.347 369.503 300.356C378.51 313.366 396.082 312.726 396.082 312.726" fill="black"/>
<path d="M475.517 583.598L428.161 592.573L431.004 607.569L478.359 598.593L475.517 583.598Z" fill="#27AE60"/>
<path opacity="0.1" d="M475.517 583.598L428.161 592.573L431.004 607.569L478.359 598.593L475.517 583.598Z" fill="black"/>
<path d="M429.998 563.396C433.787 560.225 437.056 557.153 437.194 556.113C437.194 556.113 450.028 565.372 460.218 567.071C463.646 567.647 467.001 568.59 470.228 569.883C474.449 571.536 480.36 573.302 485.245 572.376C485.245 572.376 498.09 579.752 477.079 585.37C456.068 590.988 405.298 594.888 405.298 594.888L404.715 574.558C414.042 573.35 422.821 569.474 429.998 563.396Z" fill="#ABB1D1"/>
<defs>
<linearGradient id="paint0_linear" x1="476.768" y1="675.391" x2="374.658" y2="136.674" gradientUnits="userSpaceOnUse">
<stop stop-color="#808080" stop-opacity="0.25"/>
<stop offset="0.54" stop-color="#808080" stop-opacity="0.12"/>
<stop offset="1" stop-color="#808080" stop-opacity="0.1"/>
</linearGradient>
</defs>
</svg>
