<svg width="50" height="50" viewBox="0 0 50 50" fill="none" xmlns="http://www.w3.org/2000/svg">
<path d="M11.6424 32.0554C11.1146 31.4627 10.8036 30.7071 10.7608 29.913V20.0103C10.8035 19.2161 11.1145 18.4603 11.6424 17.8677L12.3396 17.167C12.5734 16.9316 12.7047 16.6125 12.7047 16.2799C12.7047 15.9472 12.5734 15.6282 12.3396 15.3928L4.94427 7.95885C4.70976 7.72411 4.39228 7.59232 4.06129 7.59232C3.73031 7.59232 3.41282 7.72411 3.17831 7.95885L0.363277 10.7882C0.130559 11.0242 0 11.343 0 11.6753C0 12.0076 0.130559 12.3264 0.363277 12.5625L5.64146 17.8675C6.17028 18.4595 6.48169 19.2156 6.52397 20.0101V29.9127C6.48181 30.7068 6.17035 31.4623 5.64146 32.0538L0.363277 37.3609C0.130559 37.5969 0 37.9158 0 38.2479C0 38.5802 0.130559 38.8991 0.363277 39.1351L3.17831 41.9644C3.41284 42.1991 3.73033 42.3309 4.06129 42.3309C4.39225 42.3309 4.70974 42.1991 4.94427 41.9644L12.3396 34.53C12.5734 34.2943 12.7047 33.9755 12.7047 33.6429C12.7047 33.3101 12.5734 32.9913 12.3396 32.7559L11.6424 32.0554Z" fill="url(#paint0_linear)"/>
<path d="M31.9662 38.2979C31.3768 38.8283 30.6251 39.1413 29.835 39.1851H19.9852C19.1946 39.1413 18.4423 38.8285 17.8521 38.2979L17.1566 37.5953C16.9212 37.3613 16.6037 37.2302 16.2728 37.2302C15.9419 37.2302 15.6243 37.3613 15.389 37.5953L7.9946 45.0292C7.76115 45.2653 7.6301 45.5847 7.6301 45.9174C7.6301 46.2502 7.76115 46.5696 7.9946 46.8054L10.8096 49.6349C11.0447 49.8689 11.3621 50 11.6928 50C12.0236 50 12.341 49.8689 12.5761 49.6349L17.8531 44.3271C18.4431 43.7969 19.1951 43.4842 19.9854 43.4403H29.838C30.6282 43.4839 31.3798 43.7967 31.9693 44.3271L37.2486 49.6349C37.4836 49.8689 37.8007 50 38.1315 50C38.462 50 38.7793 49.8689 39.0141 49.6349L41.8291 46.8054C42.0627 46.5696 42.1937 46.2502 42.1937 45.9174C42.1937 45.5847 42.0627 45.2653 41.8291 45.0292L34.4293 37.5948C34.1946 37.3608 33.8775 37.2297 33.547 37.2297C33.2164 37.2297 32.8991 37.3608 32.6643 37.5948L31.9662 38.2979Z" fill="url(#paint1_linear)"/>
<path d="M38.3545 17.9441C38.8836 18.5373 39.1955 19.2942 39.2385 20.0897V29.9887C39.1953 30.7837 38.8833 31.5401 38.3545 32.1326L37.657 32.8349C37.4239 33.0708 37.2932 33.3896 37.2932 33.7222C37.2932 34.0545 37.4239 34.3734 37.657 34.6092L45.0545 42.0422C45.289 42.2769 45.6066 42.4085 45.9373 42.4085C46.2683 42.4085 46.5857 42.2769 46.8202 42.0422L49.6352 39.2113C49.8688 38.9757 50 38.6566 50 38.3241C50 37.9915 49.8688 37.6724 49.6352 37.4368L44.3582 32.1316C43.8291 31.5392 43.5169 30.7828 43.4737 29.9877L43.4751 20.0888C43.5176 19.2933 43.8291 18.5364 44.3582 17.9432L49.6352 12.6381C49.8688 12.403 50 12.0843 50 11.752C50 11.4197 49.8688 11.1009 49.6352 10.8658L46.8202 8.03477C46.7042 7.91824 46.5667 7.82578 46.4153 7.76272C46.2636 7.69965 46.1014 7.66718 45.9373 7.66718C45.7735 7.66718 45.611 7.69965 45.4596 7.76272C45.308 7.82578 45.1704 7.91824 45.0545 8.03477L37.657 15.4675C37.4239 15.7033 37.2932 16.0223 37.2932 16.3547C37.2932 16.6872 37.4239 17.0061 37.657 17.242L38.3545 17.9441Z" fill="url(#paint2_linear)"/>
<path d="M18.0304 11.7019C18.6197 11.1707 19.3717 10.8577 20.1621 10.8146H30.0127C30.8028 10.8584 31.5545 11.1713 32.1441 11.7019L32.843 12.404C32.9587 12.5205 33.0963 12.6129 33.2477 12.676C33.3991 12.739 33.5613 12.7715 33.7251 12.7715C33.889 12.7715 34.0514 12.739 34.2026 12.676C34.354 12.6129 34.4916 12.5205 34.6075 12.404L42.0038 4.96962C42.2371 4.73361 42.3681 4.41434 42.3681 4.08156C42.3681 3.7488 42.2371 3.42953 42.0038 3.19349L39.1887 0.367439C38.9545 0.132161 38.6369 0 38.3056 0C37.9744 0 37.6568 0.132161 37.4225 0.367439L32.1444 5.6725C31.5547 6.20299 30.8031 6.51592 30.0129 6.55972H20.1621C19.3717 6.51667 18.6197 6.20366 18.0304 5.6725L12.7522 0.367439C12.5172 0.133593 12.1999 0.00241767 11.8691 0.00241767C11.5384 0.00241767 11.2211 0.133593 10.986 0.367439L8.17101 3.19679C7.93763 3.43278 7.80663 3.752 7.80663 4.08474C7.80663 4.41748 7.93763 4.7367 8.17101 4.97269L15.5656 12.4038C15.7999 12.6391 16.1175 12.7712 16.4487 12.7712C16.7799 12.7712 17.0976 12.6391 17.3318 12.4038L18.0304 11.7019Z" fill="url(#paint3_linear)"/>
<defs>
<linearGradient id="paint0_linear" x1="6.35235" y1="7.59232" x2="6.35235" y2="42.3309" gradientUnits="userSpaceOnUse">
<stop stop-color="#0099FF"/>
<stop offset="0.994792" stop-color="#8E44AD"/>
</linearGradient>
<linearGradient id="paint1_linear" x1="24.9119" y1="37.2297" x2="24.9119" y2="50" gradientUnits="userSpaceOnUse">
<stop stop-color="#0099FF"/>
<stop offset="0.994792" stop-color="#8E44AD"/>
</linearGradient>
<linearGradient id="paint2_linear" x1="43.6466" y1="7.66718" x2="43.6466" y2="42.4085" gradientUnits="userSpaceOnUse">
<stop stop-color="#0099FF"/>
<stop offset="0.994792" stop-color="#8E44AD"/>
</linearGradient>
<linearGradient id="paint3_linear" x1="25.0874" y1="0" x2="25.0874" y2="12.7715" gradientUnits="userSpaceOnUse">
<stop stop-color="#0099FF"/>
<stop offset="0.994792" stop-color="#8E44AD"/>
</linearGradient>
</defs>
</svg>
