<svg width="160" height="54" viewBox="0 0 160 54" fill="none" xmlns="http://www.w3.org/2000/svg">
<rect x="2.5" y="2.5" width="155" height="49" rx="17.5" stroke="url(#paint0_linear)" stroke-width="5"/>
<path d="M38.8731 26.146C39.6944 26.2927 40.3911 26.7253 40.9631 27.444C41.5351 28.1627 41.8211 28.9767 41.8211 29.886C41.8211 30.6633 41.6157 31.3673 41.2051 31.998C40.8091 32.614 40.2297 33.1053 39.4671 33.472C38.7044 33.824 37.8171 34 36.8051 34H30.6891V18.71H36.5191C37.5604 18.71 38.4551 18.886 39.2031 19.238C39.9511 19.59 40.5157 20.0667 40.8971 20.668C41.2784 21.2547 41.4691 21.9147 41.4691 22.648C41.4691 23.528 41.2344 24.2613 40.7651 24.848C40.2957 25.4347 39.6651 25.8673 38.8731 26.146ZM33.1971 25.134H36.2991C37.1204 25.134 37.7584 24.9507 38.2131 24.584C38.6824 24.2027 38.9171 23.66 38.9171 22.956C38.9171 22.2667 38.6824 21.7313 38.2131 21.35C37.7584 20.954 37.1204 20.756 36.2991 20.756H33.1971V25.134ZM36.5851 31.954C37.4357 31.954 38.1031 31.7487 38.5871 31.338C39.0711 30.9273 39.3131 30.3553 39.3131 29.622C39.3131 28.874 39.0564 28.28 38.5431 27.84C38.0297 27.4 37.3477 27.18 36.4971 27.18H33.1971V31.954H36.5851ZM45.8225 20.272C45.3678 20.272 44.9865 20.118 44.6785 19.81C44.3705 19.502 44.2165 19.1207 44.2165 18.666C44.2165 18.2113 44.3705 17.83 44.6785 17.522C44.9865 17.214 45.3678 17.06 45.8225 17.06C46.2625 17.06 46.6365 17.214 46.9445 17.522C47.2525 17.83 47.4065 18.2113 47.4065 18.666C47.4065 19.1207 47.2525 19.502 46.9445 19.81C46.6365 20.118 46.2625 20.272 45.8225 20.272ZM47.0545 21.878V34H44.5465V21.878H47.0545ZM55.1433 27.95L60.7313 34H57.3433L52.8553 28.786V34H50.3473V17.72H52.8553V27.18L57.2553 21.878H60.7313L55.1433 27.95ZM73.6389 27.642C73.6389 28.0967 73.6096 28.5073 73.5509 28.874H64.2889C64.3622 29.842 64.7216 30.6193 65.3669 31.206C66.0122 31.7927 66.8042 32.086 67.7429 32.086C69.0922 32.086 70.0456 31.5213 70.6029 30.392H73.3089C72.9422 31.5067 72.2749 32.4233 71.3069 33.142C70.3536 33.846 69.1656 34.198 67.7429 34.198C66.5842 34.198 65.5429 33.9413 64.6189 33.428C63.7096 32.9 62.9909 32.1667 62.4629 31.228C61.9496 30.2747 61.6929 29.1747 61.6929 27.928C61.6929 26.6813 61.9422 25.5887 62.4409 24.65C62.9542 23.6967 63.6656 22.9633 64.5749 22.45C65.4989 21.9367 66.5549 21.68 67.7429 21.68C68.8869 21.68 69.9062 21.9293 70.8009 22.428C71.6956 22.9267 72.3922 23.6307 72.8909 24.54C73.3896 25.4347 73.6389 26.4687 73.6389 27.642ZM71.0209 26.85C71.0062 25.926 70.6762 25.1853 70.0309 24.628C69.3856 24.0707 68.5862 23.792 67.6329 23.792C66.7676 23.792 66.0269 24.0707 65.4109 24.628C64.7949 25.1707 64.4282 25.9113 64.3109 26.85H71.0209ZM81.145 34.154C80.1184 34.154 79.1944 33.978 78.373 33.626C77.5517 33.2593 76.9064 32.746 76.437 32.086C75.9677 31.426 75.733 30.656 75.733 29.776H78.417C78.4757 30.436 78.7324 30.9787 79.187 31.404C79.6564 31.8293 80.309 32.042 81.145 32.042C82.0104 32.042 82.685 31.8367 83.169 31.426C83.653 31.0007 83.895 30.458 83.895 29.798C83.895 29.2847 83.741 28.8667 83.433 28.544C83.1397 28.2213 82.7657 27.972 82.311 27.796C81.871 27.62 81.255 27.4293 80.463 27.224C79.4657 26.96 78.6517 26.696 78.021 26.432C77.405 26.1533 76.877 25.728 76.437 25.156C75.997 24.584 75.777 23.8213 75.777 22.868C75.777 21.988 75.997 21.218 76.437 20.558C76.877 19.898 77.493 19.392 78.285 19.04C79.077 18.688 79.9937 18.512 81.035 18.512C82.5164 18.512 83.7264 18.886 84.665 19.634C85.6184 20.3673 86.1464 21.3793 86.249 22.67H83.477C83.433 22.1127 83.169 21.636 82.685 21.24C82.201 20.844 81.563 20.646 80.771 20.646C80.0524 20.646 79.4657 20.8293 79.011 21.196C78.5564 21.5627 78.329 22.0907 78.329 22.78C78.329 23.2493 78.4684 23.638 78.747 23.946C79.0404 24.2393 79.407 24.474 79.847 24.65C80.287 24.826 80.8884 25.0167 81.651 25.222C82.663 25.5007 83.4844 25.7793 84.115 26.058C84.7604 26.3367 85.303 26.7693 85.743 27.356C86.1977 27.928 86.425 28.698 86.425 29.666C86.425 30.4433 86.2124 31.1767 85.787 31.866C85.3764 32.5553 84.7677 33.1127 83.961 33.538C83.169 33.9487 82.2304 34.154 81.145 34.154ZM95.6544 21.68C96.5784 21.68 97.3997 21.878 98.1184 22.274C98.8517 22.67 99.4237 23.2567 99.8344 24.034C100.26 24.8113 100.472 25.75 100.472 26.85V34H97.9864V27.224C97.9864 26.1387 97.715 25.31 97.1724 24.738C96.6297 24.1513 95.889 23.858 94.9504 23.858C94.0117 23.858 93.2637 24.1513 92.7064 24.738C92.1637 25.31 91.8924 26.1387 91.8924 27.224V34H89.3844V17.72H91.8924V23.286C92.3177 22.7727 92.853 22.3767 93.4984 22.098C94.1584 21.8193 94.877 21.68 95.6544 21.68ZM108.929 34.198C107.785 34.198 106.751 33.9413 105.827 33.428C104.903 32.9 104.177 32.1667 103.649 31.228C103.121 30.2747 102.857 29.1747 102.857 27.928C102.857 26.696 103.129 25.6033 103.671 24.65C104.214 23.6967 104.955 22.9633 105.893 22.45C106.832 21.9367 107.881 21.68 109.039 21.68C110.198 21.68 111.247 21.9367 112.185 22.45C113.124 22.9633 113.865 23.6967 114.407 24.65C114.95 25.6033 115.221 26.696 115.221 27.928C115.221 29.16 114.943 30.2527 114.385 31.206C113.828 32.1593 113.065 32.9 112.097 33.428C111.144 33.9413 110.088 34.198 108.929 34.198ZM108.929 32.02C109.575 32.02 110.176 31.866 110.733 31.558C111.305 31.25 111.767 30.788 112.119 30.172C112.471 29.556 112.647 28.808 112.647 27.928C112.647 27.048 112.479 26.3073 112.141 25.706C111.804 25.09 111.357 24.628 110.799 24.32C110.242 24.012 109.641 23.858 108.995 23.858C108.35 23.858 107.749 24.012 107.191 24.32C106.649 24.628 106.216 25.09 105.893 25.706C105.571 26.3073 105.409 27.048 105.409 27.928C105.409 29.2333 105.739 30.2453 106.399 30.964C107.074 31.668 107.917 32.02 108.929 32.02ZM120.209 23.66C120.634 23.1027 121.213 22.6333 121.947 22.252C122.68 21.8707 123.509 21.68 124.433 21.68C125.489 21.68 126.449 21.944 127.315 22.472C128.195 22.9853 128.884 23.7113 129.383 24.65C129.881 25.5887 130.131 26.6667 130.131 27.884C130.131 29.1013 129.881 30.194 129.383 31.162C128.884 32.1153 128.195 32.8633 127.315 33.406C126.449 33.934 125.489 34.198 124.433 34.198C123.509 34.198 122.687 34.0147 121.969 33.648C121.25 33.2667 120.663 32.7973 120.209 32.24V39.764H117.701V21.878H120.209V23.66ZM127.579 27.884C127.579 27.048 127.403 26.3293 127.051 25.728C126.713 25.112 126.259 24.65 125.687 24.342C125.129 24.0193 124.528 23.858 123.883 23.858C123.252 23.858 122.651 24.0193 122.079 24.342C121.521 24.6647 121.067 25.134 120.715 25.75C120.377 26.366 120.209 27.092 120.209 27.928C120.209 28.764 120.377 29.4973 120.715 30.128C121.067 30.744 121.521 31.2133 122.079 31.536C122.651 31.8587 123.252 32.02 123.883 32.02C124.528 32.02 125.129 31.8587 125.687 31.536C126.259 31.1987 126.713 30.7147 127.051 30.084C127.403 29.4533 127.579 28.72 127.579 27.884Z" fill="#212121"/>
<defs>
<linearGradient id="paint0_linear" x1="80" y1="0" x2="80" y2="54" gradientUnits="userSpaceOnUse">
<stop stop-color="#0099FF"/>
<stop offset="1" stop-color="#8E44AD"/>
</linearGradient>
</defs>
</svg>
