<svg width="927" height="1024" viewBox="0 0 927 1024" fill="none" xmlns="http://www.w3.org/2000/svg">
<path fill-rule="evenodd" clip-rule="evenodd" d="M245.014 -29.2482L302.525 16.035C360.037 61.3183 472.438 151.876 527.178 242.241C584.539 332.616 584.238 422.797 507.929 512.726C431.619 602.654 281.923 692.338 336.662 782.703C394.023 873.077 658.442 964.142 789.341 1009.67L922.861 1055.21L16 1052.18L16.1504 1007.09C16.3008 962 16.6016 871.818 16.9024 781.637C17.2031 691.455 17.5039 601.273 17.8047 511.091C18.1055 420.909 18.4063 330.727 18.7071 240.546C19.0078 150.364 19.3086 60.1819 19.459 15.0909L19.6094 -30L245.014 -29.2482Z" fill="#005C9A"/>
<path fill-rule="evenodd" clip-rule="evenodd" d="M189.895 0.631933L238.225 43.4553C286.554 86.2787 381.01 171.918 426.994 257.396C475.181 342.881 474.896 428.205 410.717 513.315C346.538 598.425 220.668 683.33 266.652 768.808C314.839 854.293 537.084 940.358 647.104 983.388L759.328 1026.42L-3 1023.88L-2.85771 981.22C-2.71542 938.558 -2.43085 853.235 -2.14627 767.911C-1.86169 682.588 -1.57711 597.264 -1.29253 511.941C-1.00796 426.617 -0.723379 341.294 -0.438802 255.97C-0.154224 170.647 0.130354 85.3234 0.272643 42.6617L0.414931 -3.75491e-05L189.895 0.631933Z" fill="url(#paint0_linear)"/>
<defs>
<linearGradient id="paint0_linear" x1="761.036" y1="514.483" x2="-1.29253" y2="511.941" gradientUnits="userSpaceOnUse">
<stop stop-color="#0099FF"/>
<stop offset="0.984375" stop-color="#8E44AD"/>
</linearGradient>
</defs>
</svg>
