<svg width="1440" height="282" viewBox="0 0 1440 282" fill="none" xmlns="http://www.w3.org/2000/svg">
<path fill-rule="evenodd" clip-rule="evenodd" d="M-102 55.3549L-50.1 78.2604C1.8 101.166 105.6 146.977 209.4 141.887C313.2 137.433 417 82.7142 520.8 78.2604C624.6 73.1703 728.4 118.981 832.2 118.981C936 118.981 1039.8 73.1703 1143.6 45.811C1247.4 18.4516 1351.2 9.54395 1403.1 4.45384L1455 0V247.506H1403.1C1351.2 247.506 1247.4 247.506 1143.6 247.506C1039.8 247.506 936 247.506 832.2 247.506C728.4 247.506 624.6 247.506 520.8 247.506C417 247.506 313.2 247.506 209.4 247.506C105.6 247.506 1.8 247.506 -50.1 247.506H-102V55.3549Z" fill="#005C9A"/>
<path fill-rule="evenodd" clip-rule="evenodd" d="M0 95.956L48 118.133C96 140.311 192 184.666 288 179.737C384 175.425 480 122.446 576 118.133C672 113.205 768 157.56 864 157.56C960 157.56 1056 113.205 1152 86.7154C1248 60.2257 1344 51.6011 1392 46.6728L1440 42.3605V282H1392C1344 282 1248 282 1152 282C1056 282 960 282 864 282C768 282 672 282 576 282C480 282 384 282 288 282C192 282 96 282 48 282H0V95.956Z" fill="url(#paint0_linear)"/>
<defs>
<linearGradient id="paint0_linear" x1="720" y1="42.3605" x2="720" y2="282" gradientUnits="userSpaceOnUse">
<stop stop-color="#0099FF"/>
<stop offset="0.994792" stop-color="#8E44AD"/>
</linearGradient>
</defs>
</svg>
